<svg width="30" height="30" viewBox="0 0 30 30" fill="none" xmlns="http://www.w3.org/2000/svg">
<g clip-path="url(#clip0_918_79)">
<mask id="mask0_918_79" style="mask-type:alpha" maskUnits="userSpaceOnUse" x="0" y="0" width="30" height="30">
<path d="M15 30C23.2843 30 30 23.2843 30 15C30 6.71572 23.2843 0 15 0C6.71572 0 0 6.71572 0 15C0 23.2843 6.71572 30 15 30Z" fill="white"/>
</mask>
<g mask="url(#mask0_918_79)">
<path d="M0 0H30V30H0V0Z" fill="#D80027"/>
<path d="M23.4609 10.9274H18.0293C18.2956 10.651 18.4745 10.3021 18.5435 9.92446C18.6124 9.54683 18.5685 9.15725 18.4171 8.8045C18.2657 8.45174 18.0136 8.15147 17.6924 7.94123C17.3712 7.73106 16.9952 7.62026 16.6113 7.62272C16.2888 7.62232 15.9712 7.70186 15.687 7.85421C15.4027 8.00656 15.1607 8.22698 14.9824 8.49577C14.8327 8.26892 14.6373 8.07578 14.4087 7.92865C14.1801 7.78152 13.9234 7.68364 13.6549 7.64123C13.2504 7.57722 12.8359 7.64177 12.47 7.8258C12.1041 8.00982 11.8052 8.30404 11.6153 8.66698C11.4893 8.90781 11.4148 9.17227 11.3967 9.44348C11.3785 9.7147 11.4171 9.98672 11.5099 10.2422C11.6026 10.4977 11.7476 10.7311 11.9355 10.9274H6.50391C6.52379 11.6279 6.81688 12.2928 7.32054 12.78C7.8242 13.2673 8.49846 13.5382 9.19922 13.5348H9.11133C9.11133 14.9762 10.2832 16.1481 11.7188 16.1481C11.7188 16.6169 11.8418 17.0505 12.0586 17.4255L9.89063 19.5934L11.5547 21.2516L13.9102 18.8962C14.0034 18.9315 14.0994 18.9589 14.1973 18.9782L12.7734 22.1891L14.9824 24.5798L17.1914 22.1891L15.7676 18.9782C15.8654 18.959 15.9615 18.9315 16.0547 18.8962L18.4102 21.2516L20.0684 19.5934L17.9004 17.4255C18.1243 17.0368 18.2434 16.5966 18.2461 16.1481C19.6816 16.1481 20.8535 14.9762 20.8535 13.5348H20.7656C22.207 13.5348 23.4609 12.3688 23.4609 10.9274Z" fill="#333333"/>
</g>
</g>
<defs>
<clipPath id="clip0_918_79">
<rect width="30" height="30" fill="white"/>
</clipPath>
</defs>
</svg>
