<svg width="512" height="512" viewBox="0 0 512 512" fill="none" xmlns="http://www.w3.org/2000/svg"><mask id="a" style="mask-type:alpha" maskUnits="userSpaceOnUse" x="0" y="0" width="512" height="512" viewBox="0 0 512 512"><path d="M256 512c141.385 0 256-114.615 256-256S397.385 0 256 0 0 114.615 0 256s114.615 256 256 256z" fill="#fff"/></mask><g mask="url(#a)"><path d="M0 0h512v512H0V0z" fill="#D80027"/><path d="M400.4 186.494h-92.7a33.293 33.293 0 0 0 6.618-36.231 33.31 33.31 0 0 0-12.367-14.733 33.309 33.309 0 0 0-18.451-5.436 33.308 33.308 0 0 0-27.8 14.9 33.39 33.39 0 0 0-22.656-14.584 33.393 33.393 0 0 0-34.809 17.506 33.393 33.393 0 0 0-1.8 26.884 33.387 33.387 0 0 0 7.265 11.694H111a45.8 45.8 0 0 0 46 44.5h-1.5c0 24.6 20 44.6 44.5 44.6 0 8 2.1 15.4 5.8 21.8l-37 37 28.4 28.3 40.2-40.2a30.41 30.41 0 0 0 4.9 1.4l-24.3 54.8 37.7 40.8 37.7-40.8-24.3-54.8a30.309 30.309 0 0 0 4.9-1.4l40.2 40.2 28.3-28.3-37-37a44.206 44.206 0 0 0 5.9-21.8c24.5 0 44.5-20 44.5-44.6h-1.5c24.6 0 46-19.9 46-44.5z" fill="#333"/></g></svg>