<svg width="30" height="30" viewBox="0 0 30 30" fill="none" xmlns="http://www.w3.org/2000/svg">
<g clip-path="url(#clip0_919_112)">
<mask id="mask0_919_112" style="mask-type:alpha" maskUnits="userSpaceOnUse" x="0" y="0" width="30" height="30">
<path d="M15 30C23.2843 30 30 23.2843 30 15C30 6.71572 23.2843 0 15 0C6.71572 0 0 6.71572 0 15C0 23.2843 6.71572 30 15 30Z" fill="white"/>
</mask>
<g mask="url(#mask0_919_112)">
<path d="M0 9.78516L14.8711 8.6543L30 9.78516V20.2148L15.0645 22.1074L0 20.2148V9.78516Z" fill="#D80027"/>
<path d="M0 0H30V9.78516H0V0Z" fill="#338AF3"/>
<path d="M0 20.2148H30V30H0V20.2148Z" fill="#6DA544"/>
<path d="M15.3403 19.2393C14.6965 19.2375 14.0616 19.089 13.4838 18.8051C12.906 18.5212 12.4005 18.1093 12.0058 17.6008C11.611 17.0923 11.3373 16.5005 11.2054 15.8704C11.0736 15.2402 11.0872 14.5883 11.2451 13.9642C11.4029 13.3401 11.701 12.7601 12.1165 12.2684C12.7433 11.5269 13.6057 11.0232 14.5595 10.8416C15.5132 10.6599 16.5004 10.8114 17.3559 11.2706C16.6219 10.5532 15.6926 10.0684 14.6843 9.8768C13.676 9.68524 12.6336 9.79547 11.6877 10.1937C10.9805 10.4914 10.3476 10.9414 9.83434 11.5118C9.32106 12.0822 8.93997 12.7588 8.71827 13.4934C8.49656 14.228 8.4397 15.0025 8.55174 15.7616C8.66378 16.5207 8.94196 17.2458 9.36644 17.885C9.79091 18.5242 10.3512 19.0619 11.0074 19.4597C11.6636 19.8575 12.3995 20.1055 13.1625 20.1862C13.9256 20.2669 14.6971 20.1781 15.4219 19.9263C16.1468 19.6746 16.8071 19.2659 17.3559 18.7296C16.737 19.065 16.0441 19.2402 15.3403 19.2393Z" fill="#EEEEEE"/>
<path d="M18.598 12.0791L19.1605 13.6494L20.6722 12.9287L19.9574 14.4404L21.5336 15.0029L19.9515 15.5654L20.6722 17.0771L19.1605 16.3564L18.598 17.9385L18.0355 16.3564L16.5238 17.0771L17.2445 15.5654L15.6625 15.0029L17.2445 14.4404L16.5238 12.9287L18.0355 13.6494L18.598 12.0791Z" fill="#EEEEEE"/>
</g>
</g>
<defs>
<clipPath id="clip0_919_112">
<rect width="30" height="30" fill="white"/>
</clipPath>
</defs>
</svg>
