<svg width="512" height="512" viewBox="0 0 512 512" fill="none" xmlns="http://www.w3.org/2000/svg"><mask id="a" style="mask-type:alpha" maskUnits="userSpaceOnUse" x="0" y="0" width="512" height="512" viewBox="0 0 512 512"><path d="M256 512c141.385 0 256-114.615 256-256S397.385 0 256 0 0 114.615 0 256s114.615 256 256 256z" fill="#fff"/></mask><g mask="url(#a)"><path d="m0 167 253.8-19.3L512 167v178l-254.9 32.3L0 345V167z" fill="#D80027"/><path d="M0 0h512v167H0V0z" fill="#338AF3"/><path d="M0 345h512v167H0V345z" fill="#6DA544"/><path d="M261.807 328.35a72.313 72.313 0 0 1-31.684-7.41 72.312 72.312 0 0 1-38.884-50.087 72.311 72.311 0 0 1 15.549-61.473 72.306 72.306 0 0 1 89.419-17.03 88.996 88.996 0 0 0-96.737-18.379 89.001 89.001 0 1 0 96.737 145.679 72.007 72.007 0 0 1-34.4 8.7z" fill="#EEE"/><path d="m317.407 206.15 9.6 26.8 25.8-12.3-12.2 25.8 26.9 9.6-27 9.6 12.3 25.8-25.8-12.3-9.6 27-9.6-27-25.8 12.3 12.3-25.8-27-9.6 27-9.6-12.3-25.8 25.8 12.3 9.6-26.8z" fill="#EEE"/></g></svg>