<svg width="512" height="512" viewBox="0 0 512 512" fill="none" xmlns="http://www.w3.org/2000/svg"><mask id="a" style="mask-type:alpha" maskUnits="userSpaceOnUse" x="0" y="0" width="512" height="512" viewBox="0 0 512 512"><path d="M256 512c141.385 0 256-114.615 256-256S397.385 0 256 0 0 114.615 0 256s114.615 256 256 256z" fill="#fff"/></mask><g mask="url(#a)"><path d="M0 0h512v512H0V0z" fill="#FFDA44"/><path d="M445 0h66.7v512H445V0z" fill="#0052B4"/><path d="M0 67v445.2h445.4L0 67z" fill="#0052B4"/><path d="m366.2 444.7-8.3 25.6h-26.8l21.7 15.8-8.3 25.5 21.7-15.8 21.7 15.8-8.3-25.5 21.7-15.8h-26.8l-8.3-25.6zm-55-55.4-8.3 25.5h-26.8l21.7 15.8-8.3 25.5 21.7-15.8 21.7 15.8-8.3-25.5 21.7-15.8h-26.8l-8.3-25.5zM256 333.7l-8.3 25.5h-26.8l21.7 15.8-8.3 25.5 21.7-15.8 21.7 15.8-8.3-25.5 21.7-15.8h-26.8l-8.3-25.5zM200.9 278l-8.3 25.5h-26.8l21.7 15.8-8.3 25.5 21.7-15.8 21.7 15.7-8.3-25.5 21.7-15.8h-26.8l-8.3-25.4zm-55.4-55.7-8.3 25.5h-26.8l21.7 15.8-8.3 25.5 21.7-15.8 21.7 15.8-8.3-25.5 21.7-15.9h-26.8l-8.3-25.4zm-55.2-55.6L82 192.2H55.2L76.9 208l-8.3 25.5 21.7-15.8 21.7 15.8-8.3-25.5 21.7-15.8H98.6l-8.3-25.5zM35.1 111l-8.3 25.5H0l21.7 15.8-8.3 25.4 21.7-15.8 21.7 15.8-8.3-25.5 21.7-15.8H43.4L35.1 111z" fill="#EEE"/></g></svg>