<svg width="30" height="30" viewBox="0 0 30 30" fill="none" xmlns="http://www.w3.org/2000/svg">
<g clip-path="url(#clip0_919_131)">
<mask id="mask0_919_131" style="mask-type:alpha" maskUnits="userSpaceOnUse" x="0" y="0" width="30" height="30">
<path d="M15 30C23.2843 30 30 23.2843 30 15C30 6.71572 23.2843 0 15 0C6.71572 0 0 6.71572 0 15C0 23.2843 6.71572 30 15 30Z" fill="white"/>
</mask>
<g mask="url(#mask0_919_131)">
<path d="M0 0H30V30H0V0Z" fill="#FFDA44"/>
<path d="M26.0742 0H29.9824V30H26.0742V0Z" fill="#0052B4"/>
<path d="M0 3.92578V30.0117H26.0977L0 3.92578Z" fill="#0052B4"/>
<path d="M21.457 26.0566L20.9707 27.5566H19.4004L20.6719 28.4824L20.1855 29.9766L21.457 29.0508L22.7285 29.9766L22.2422 28.4824L23.5137 27.5566H21.9434L21.457 26.0566ZM18.2344 22.8105L17.748 24.3047H16.1777L17.4492 25.2305L16.9629 26.7246L18.2344 25.7988L19.5059 26.7246L19.0195 25.2305L20.291 24.3047H18.7207L18.2344 22.8105ZM15 19.5527L14.5137 21.0469H12.9434L14.2148 21.9727L13.7285 23.4668L15 22.541L16.2715 23.4668L15.7852 21.9727L17.0566 21.0469H15.4863L15 19.5527ZM11.7715 16.2891L11.2852 17.7832H9.71484L10.9863 18.709L10.5 20.2031L11.7715 19.2773L13.043 20.1973L12.5566 18.7031L13.8281 17.7773H12.2578L11.7715 16.2891ZM8.52539 13.0254L8.03906 14.5195H6.46875L7.74023 15.4453L7.25391 16.9395L8.52539 16.0137L9.79687 16.9395L9.31055 15.4453L10.582 14.5137H9.01172L8.52539 13.0254ZM5.29102 9.76758L4.80469 11.2617H3.23438L4.50586 12.1875L4.01953 13.6816L5.29102 12.7559L6.5625 13.6816L6.07617 12.1875L7.34766 11.2617H5.77734L5.29102 9.76758ZM2.05664 6.50391L1.57031 7.99805H0L1.27148 8.92383L0.785156 10.4121L2.05664 9.48633L3.32812 10.4121L2.8418 8.91797L4.11328 7.99219H2.54297L2.05664 6.50391Z" fill="#EEEEEE"/>
</g>
</g>
<defs>
<clipPath id="clip0_919_131">
<rect width="30" height="30" fill="white"/>
</clipPath>
</defs>
</svg>
