<svg width="512" height="512" viewBox="0 0 512 512" fill="none" xmlns="http://www.w3.org/2000/svg">
<mask id="mask0_518_323" style="mask-type:alpha" maskUnits="userSpaceOnUse" x="0" y="0" width="512" height="512">
<path d="M256 512C397.385 512 512 397.385 512 256C512 114.615 397.385 0 256 0C114.615 0 0 114.615 0 256C0 397.385 114.615 512 256 512Z" fill="white"/>
</mask>
<g mask="url(#mask0_518_323)">
<path d="M0 0H512V512H0V0Z" fill="#FFDA44"/>
<path d="M445 0H511.7V512H445V0Z" fill="#0052B4"/>
<path d="M0 67V512.2H445.4L0 67Z" fill="#0052B4"/>
<path d="M366.2 444.7L357.9 470.3H331.1L352.8 486.1L344.5 511.6L366.2 495.8L387.9 511.6L379.6 486.1L401.3 470.3H374.5L366.2 444.7ZM311.2 389.3L302.9 414.8H276.1L297.8 430.6L289.5 456.1L311.2 440.3L332.9 456.1L324.6 430.6L346.3 414.8H319.5L311.2 389.3ZM256 333.7L247.7 359.2H220.9L242.6 375L234.3 400.5L256 384.7L277.7 400.5L269.4 375L291.1 359.2H264.3L256 333.7ZM200.9 278L192.6 303.5H165.8L187.5 319.3L179.2 344.8L200.9 329L222.6 344.7L214.3 319.2L236 303.4H209.2L200.9 278ZM145.5 222.3L137.2 247.8H110.4L132.1 263.6L123.8 289.1L145.5 273.3L167.2 289.1L158.9 263.6L180.6 247.7H153.8L145.5 222.3ZM90.3 166.7L82 192.2H55.2L76.9 208L68.6 233.5L90.3 217.7L112 233.5L103.7 208L125.4 192.2H98.6L90.3 166.7ZM35.1 111L26.8 136.5H0L21.7 152.3L13.4 177.7L35.1 161.9L56.8 177.7L48.5 152.2L70.2 136.4H43.4L35.1 111Z" fill="#EEEEEE"/>
</g>
</svg>
