<svg width="30" height="30" viewBox="0 0 30 30" fill="none" xmlns="http://www.w3.org/2000/svg">
<g clip-path="url(#clip0_919_164)">
<mask id="mask0_919_164" style="mask-type:luminance" maskUnits="userSpaceOnUse" x="0" y="0" width="30" height="30">
<path d="M15 30C23.2843 30 30 23.2843 30 15C30 6.71573 23.2843 0 15 0C6.71573 0 0 6.71573 0 15C0 23.2843 6.71573 30 15 30Z" fill="white"/>
</mask>
<g mask="url(#mask0_919_164)">
<path d="M0 0H8.47852L15.1113 2.33789L21.5215 0H30V30H21.5215L15.1934 27.3457L8.48438 30H0V0Z" fill="#D80027"/>
<path d="M8.47852 0H21.5215V30H8.47852V0Z" fill="#EEEEEE"/>
<path d="M17.6074 16.957L20.2148 15.6445L18.9141 15V13.6934L16.3066 15L17.6074 12.3926H16.3066L15 10.4297L13.6934 12.3867H12.3926L13.6934 14.9941L11.0859 13.6875V15L9.78516 15.6504L12.3926 16.957L11.7363 18.2637H14.3555V20.2148H15.6445V18.2637H18.2578L17.6074 16.957Z" fill="#D80027"/>
</g>
</g>
<defs>
<clipPath id="clip0_919_164">
<rect width="30" height="30" fill="white"/>
</clipPath>
</defs>
</svg>
