<svg width="30" height="30" viewBox="0 0 30 30" fill="none" xmlns="http://www.w3.org/2000/svg">
<g clip-path="url(#clip0_919_193)">
<mask id="mask0_919_193" style="mask-type:luminance" maskUnits="userSpaceOnUse" x="0" y="0" width="30" height="30">
<path d="M15 30C23.2843 30 30 23.2843 30 15C30 6.71573 23.2843 0 15 0C6.71573 0 0 6.71573 0 15C0 23.2843 6.71573 30 15 30Z" fill="white"/>
</mask>
<g mask="url(#mask0_919_193)">
<path d="M0 0H30V30H0V0Z" fill="#D80027"/>
<path d="M8.20898 9.12891L9.50391 13.1133H13.6934L10.3066 15.5801L11.6016 19.5645L8.20898 17.1035L4.81641 19.5645L6.11719 15.5801L2.72461 13.1133H6.91406L8.20898 9.12891ZM17.7832 23.2324L16.793 22.0137L15.3281 22.582L16.1777 21.2637L15.1875 20.0391L16.7051 20.4434L17.5605 19.125L17.6426 20.6953L19.166 21.0996L17.6953 21.6621L17.7832 23.2324ZM19.752 19.6582L20.2207 18.1582L18.9375 17.25L20.5078 17.2266L20.9707 15.7266L21.4805 17.2148L23.0508 17.1973L21.791 18.1348L22.2949 19.623L21.0117 18.7148L19.752 19.6582ZM22.4062 11.0098L21.7148 12.4219L22.8398 13.5176L21.2871 13.2949L20.5957 14.7012L20.3262 13.1543L18.7676 12.9316L20.1621 12.1992L19.8926 10.6465L21.0176 11.7422L22.4062 11.0098ZM17.8242 6.73242L17.707 8.29688L19.166 8.88867L17.6367 9.26367L17.5254 10.834L16.6992 9.49805L15.1699 9.87305L16.1836 8.67187L15.3516 7.3418L16.8105 7.93359L17.8242 6.73242Z" fill="#FFDA44"/>
</g>
</g>
<defs>
<clipPath id="clip0_919_193">
<rect width="30" height="30" fill="white"/>
</clipPath>
</defs>
</svg>
