<svg width="30" height="30" viewBox="0 0 30 30" fill="none" xmlns="http://www.w3.org/2000/svg">
<g clip-path="url(#clip0_919_260)">
<mask id="mask0_919_260" style="mask-type:luminance" maskUnits="userSpaceOnUse" x="0" y="0" width="30" height="30">
<path d="M15 30C23.2843 30 30 23.2843 30 15C30 6.71573 23.2843 0 15 0C6.71573 0 0 6.71573 0 15C0 23.2843 6.71573 30 15 30Z" fill="white"/>
</mask>
<g mask="url(#mask0_919_260)">
<path d="M0 0H30V30H0V0Z" fill="#0052B4"/>
<path d="M15 5.87109L15.4863 7.36523H17.0508L15.7793 8.28516L16.2656 9.78516L14.9941 8.85938L13.7227 9.78516L14.209 8.28516L12.9375 7.36523H14.5078L15 5.87109ZM8.54297 8.54297L9.94922 9.25781L11.0566 8.14453L10.8105 9.69727L12.2109 10.4121L10.6582 10.6582L10.4121 12.2109L9.69727 10.8047L8.14453 11.0566L9.25781 9.94336L8.54297 8.54297ZM5.87109 15L7.36523 14.5137V12.9492L8.28516 14.2207L9.78516 13.7344L8.85938 15.0059L9.78516 16.2773L8.28516 15.791L7.36523 17.0625V15.4922L5.87109 15ZM8.54297 21.457L9.25781 20.0508L8.14453 18.9434L9.69727 19.1895L10.4121 17.7891L10.6582 19.3418L12.2109 19.5879L10.8047 20.3027L11.0566 21.8555L9.94336 20.7422L8.54297 21.457ZM15 24.1289L14.5137 22.6348H12.9492L14.2207 21.7148L13.7344 20.2148L15.0059 21.1406L16.2773 20.2148L15.791 21.7148L17.0625 22.6348H15.4922L15 24.1289ZM21.457 21.457L20.0508 20.7422L18.9434 21.8555L19.1895 20.3027L17.7891 19.5879L19.3418 19.3418L19.5879 17.7891L20.3027 19.1953L21.8555 18.9434L20.7422 20.0566L21.457 21.457ZM24.1289 15L22.6348 15.4863V17.0508L21.7148 15.7793L20.2148 16.2656L21.1406 14.9941L20.2148 13.7227L21.7148 14.209L22.6348 12.9375V14.5078L24.1289 15ZM21.457 8.54297L20.7422 9.94922L21.8555 11.0566L20.3027 10.8105L19.5879 12.2109L19.3418 10.6582L17.7891 10.4121L19.1953 9.69727L18.9434 8.14453L20.0566 9.25781L21.457 8.54297Z" fill="#FFDA44"/>
</g>
</g>
<defs>
<clipPath id="clip0_919_260">
<rect width="30" height="30" fill="white"/>
</clipPath>
</defs>
</svg>
