<svg width="30" height="30" viewBox="0 0 30 30" fill="none" xmlns="http://www.w3.org/2000/svg">
<g clip-path="url(#clip0_919_276)">
<mask id="mask0_919_276" style="mask-type:luminance" maskUnits="userSpaceOnUse" x="0" y="0" width="30" height="30">
<path d="M15 30C23.2843 30 30 23.2843 30 15C30 6.71573 23.2843 0 15 0C6.71573 0 0 6.71573 0 15C0 23.2843 6.71573 30 15 30Z" fill="white"/>
</mask>
<g mask="url(#mask0_919_276)">
<path d="M0 0H2.77734L7.25391 1.23047L11.0859 0H13.043L15.0469 0.972656L16.957 0H18.9141L23.0391 1.33594L27.2344 0H28.1602L28.875 0.427734L30 0V2.77148L28.834 7.3418L30 11.0859V13.043L29.0391 14.8359L30 16.957V18.9141L29.1152 22.9395L30 27.2344V28.166L29.543 28.8047L30 30H27.2285L23.0684 28.9746L18.9141 30H16.957L15.1992 28.8457L13.043 30H11.0918L7.35937 28.8164L2.77148 30H1.83984L1.21875 29.5312L0 30V27.2285L1.33594 22.5996L0 18.9199V16.9629L1.48242 15.0879L0 13.043V11.0859L1.30078 7.30078L0 2.76563V1.83984L0.46875 1.38281L0 0Z" fill="#EEEEEE"/>
<path d="M2.77734 0L11.0859 8.32031V0H2.77734ZM18.9141 0V8.32031L27.2344 0H18.9141ZM0 2.76563V11.0859H8.32031L0 2.76563ZM30 2.77148L21.6855 11.0859H30V2.77148ZM0 18.9141V27.2285L8.31445 18.9141H0ZM21.6797 18.9141L30 27.2344V18.9141H21.6797ZM11.0918 21.6797L2.77148 30H11.0918V21.6797ZM18.9141 21.6855V30H27.2285L18.9141 21.6855Z" fill="#0052B4"/>
<path d="M13.043 0V13.043H0V16.957H13.043V30H16.957V16.957H30V13.043H16.957V0H13.043Z" fill="#D80027"/>
<path d="M0 0V1.83984L9.24023 11.0859H11.0859L0 0ZM28.1602 0L18.9141 9.24023V11.0859L30 0H28.1602ZM11.0859 18.9141L0 30H1.83984L11.0859 20.7598V18.9141ZM18.9141 18.9141L29.9941 30H30V28.166L20.7598 18.9141H18.9141Z" fill="#D80027"/>
</g>
</g>
<defs>
<clipPath id="clip0_919_276">
<rect width="30" height="30" fill="white"/>
</clipPath>
</defs>
</svg>
