<svg width="30" height="30" viewBox="0 0 30 30" fill="none" xmlns="http://www.w3.org/2000/svg">
<g clip-path="url(#clip0_919_293)">
<mask id="mask0_919_293" style="mask-type:luminance" maskUnits="userSpaceOnUse" x="0" y="0" width="30" height="30">
<path d="M15 30C23.2843 30 30 23.2843 30 15C30 6.71573 23.2843 0 15 0C6.71573 0 0 6.71573 0 15C0 23.2843 6.71573 30 15 30Z" fill="white"/>
</mask>
<g mask="url(#mask0_919_293)">
<path d="M0 0H13.043L14.8594 1.37109L16.957 0H30V13.043L28.7402 14.8594L30 16.957V30H16.957L14.9531 28.7988L13.043 30H0V16.957L1.33008 15.0469L0 13.043V0Z" fill="#EEEEEE"/>
<path d="M13.043 0V13.043H0V16.957H13.043V30H16.957V16.957H30V13.043H16.957V0H13.043Z" fill="#D80027"/>
<path d="M9.12891 7.17188V5.21484H7.17188V7.17188H5.21484V9.12891H7.17188V11.0859H9.12891V9.12891H11.0859V7.17188H9.12891ZM22.8281 7.17188V5.21484H20.8711V7.17188H18.9141V9.12891H20.8711V11.0859H22.8281V9.12891H24.7852V7.17188H22.8281ZM9.12891 20.8711V18.9141H7.17188V20.8711H5.21484V22.8281H7.17188V24.7852H9.12891V22.8281H11.0859V20.8711H9.12891ZM22.8281 20.8711V18.9141H20.8711V20.8711H18.9141V22.8281H20.8711V24.7852H22.8281V22.8281H24.7852V20.8711H22.8281Z" fill="#D80027"/>
</g>
</g>
<defs>
<clipPath id="clip0_919_293">
<rect width="30" height="30" fill="white"/>
</clipPath>
</defs>
</svg>
