<svg width="30" height="30" viewBox="0 0 30 30" fill="none" xmlns="http://www.w3.org/2000/svg">
<g clip-path="url(#clip0_919_313)">
<mask id="mask0_919_313" style="mask-type:alpha" maskUnits="userSpaceOnUse" x="0" y="0" width="30" height="30">
<path d="M15 30C23.2843 30 30 23.2843 30 15C30 6.71572 23.2843 0 15 0C6.71572 0 0 6.71572 0 15C0 23.2843 6.71572 30 15 30Z" fill="white"/>
</mask>
<g mask="url(#mask0_919_313)">
<path d="M0 0H30V30H0V0Z" fill="#EEEEEE"/>
<path d="M0 0H30V9.78516H0V0Z" fill="#D80027"/>
<path d="M0 20.2148H30V30H0V20.2148Z" fill="#0052B4"/>
<path d="M18.9141 10.4238H16.3066L16.7402 7.16016L18.4805 5.85938L20.2148 7.16016V9.7793L18.9141 10.4238ZM11.0859 10.4238H13.6934L13.2598 7.16016L11.5195 5.85938L9.78516 7.16016V9.7793L11.0859 10.4238Z" fill="#338AF3"/>
<path d="M16.7402 10.4238H13.2598V7.16016L15 5.85938L16.7402 7.16016V10.4238Z" fill="#0052B4"/>
<path d="M9.78516 9.7793V16.9453C9.78564 17.7569 9.97551 18.5571 10.3397 19.2824C10.7038 20.0076 11.2322 20.6379 11.8828 21.123L12.791 20.8945L13.9453 22.0547C14.2924 22.1256 14.6458 22.1609 15 22.1602C15.3523 22.1605 15.7037 22.1252 16.0488 22.0547L17.3613 20.959L18.123 21.123C18.7726 20.6373 19.2998 20.0068 19.6629 19.2815C20.0261 18.5563 20.215 17.7564 20.2148 16.9453V9.7793H9.78516Z" fill="#EEEEEE"/>
<path d="M9.78516 9.7793H11.8711V11.8594H9.78516V9.7793ZM13.957 9.7793H16.043V11.8594H13.957V9.7793ZM18.1289 9.7793H20.2148V11.8594H18.1289V9.7793ZM11.8711 11.8594H13.957V13.9453H11.8711V11.8594ZM16.043 11.8594H18.1289V13.9453H16.043V11.8594ZM9.78516 13.9453H11.8711V16.0313H9.78516V13.9453ZM11.8711 16.0313H13.957V18.1172H11.8711V16.0313ZM13.957 13.9453H16.043V16.0313H13.957V13.9453ZM18.1289 13.9453H20.2148V16.0313H18.1289V13.9453ZM16.043 16.0313H18.1289V18.1172H16.043V16.0313ZM13.957 18.1172H16.043V20.209H13.957V18.1172ZM11.8711 18.1172H9.91992C10.0957 18.8965 10.4473 19.6055 10.9336 20.2031H11.8711V18.1172ZM18.1289 20.209H19.0664C19.5569 19.5988 19.9034 18.8858 20.0801 18.123H18.1289V20.209ZM11.8711 20.209V21.123C12.4882 21.5866 13.2007 21.9068 13.957 22.0605V20.209H11.8711ZM16.043 20.209V22.0605C16.7993 21.9068 17.5118 21.5866 18.1289 21.123V20.209H16.043Z" fill="#D80027"/>
</g>
</g>
<defs>
<clipPath id="clip0_919_313">
<rect width="30" height="30" fill="white"/>
</clipPath>
</defs>
</svg>
