<svg width="512" height="512" viewBox="0 0 512 512" fill="none" xmlns="http://www.w3.org/2000/svg"><mask id="a" style="mask-type:alpha" maskUnits="userSpaceOnUse" x="0" y="0" width="512" height="512" viewBox="0 0 512 512"><path d="M256 512c141.385 0 256-114.615 256-256S397.385 0 256 0 0 114.615 0 256s114.615 256 256 256z" fill="#fff"/></mask><g mask="url(#a)"><path d="M0 0h512v512H0V0z" fill="#EEE"/><path d="M0 0h512v167H0V0z" fill="#D80027"/><path d="M0 345h512v167H0V345z" fill="#0052B4"/><path d="M322.8 177.9h-44.5l7.4-55.7 29.7-22.2 29.6 22.2v44.7l-22.2 11zm-133.6 0h44.5l-7.4-55.7-29.7-22.2-29.6 22.2v44.7l22.2 11z" fill="#338AF3"/><path d="M285.7 177.9h-59.4v-55.7L256 100l29.7 22.2v55.7z" fill="#0052B4"/><path d="M167 166.9v122.3a89.006 89.006 0 0 0 35.8 71.3l15.5-3.9 19.7 19.8a89.045 89.045 0 0 0 18 1.8 88.945 88.945 0 0 0 17.9-1.8l22.4-18.7 13 2.8a89.007 89.007 0 0 0 35.7-71.3V166.9H167z" fill="#EEE"/><path d="M167 166.9h35.6v35.5H167v-35.5zm71.2 0h35.6v35.5h-35.6v-35.5zm71.2 0H345v35.5h-35.6v-35.5zm-106.8 35.5h35.6V238h-35.6v-35.6zm71.2 0h35.6V238h-35.6v-35.6zM167 238h35.6v35.6H167V238zm35.6 35.6h35.6v35.6h-35.6v-35.6zm35.6-35.6h35.6v35.6h-35.6V238zm71.2 0H345v35.6h-35.6V238zm-35.6 35.6h35.6v35.6h-35.6v-35.6zm-35.6 35.6h35.6v35.7h-35.6v-35.7zm-35.6 0h-33.3c3 13.3 9 25.4 17.3 35.6h16v-35.6zm106.8 35.7h16a88.797 88.797 0 0 0 17.3-35.6h-33.3v35.6zm-106.8 0v15.6a88.697 88.697 0 0 0 35.6 16v-31.6h-35.6zm71.2 0v31.6a88.697 88.697 0 0 0 35.6-16v-15.6h-35.6z" fill="#D80027"/></g></svg>