<svg width="512" height="512" viewBox="0 0 512 512" fill="none" xmlns="http://www.w3.org/2000/svg"><mask id="a" style="mask-type:alpha" maskUnits="userSpaceOnUse" x="0" y="0" width="512" height="512" viewBox="0 0 512 512"><path d="M256 512c141.385 0 256-114.615 256-256S397.385 0 256 0 0 114.615 0 256s114.615 256 256 256z" fill="#fff"/></mask><g mask="url(#a)"><path d="M0 0h512v512H0V0z" fill="#338AF3"/><path d="M396.4 268.1H107c0 20 17.4 36.2 37.4 36.2h-1.2c0 20 16.2 36.1 36.2 36.1 0 20 16.1 36.2 36.1 36.2h72.4c20 0 36.1-16.2 36.1-36.2 20 0 36.2-16.2 36.2-36.1H359c20 0 37.4-16.2 37.4-36.2z" fill="#FFDA44"/><path d="M351.9 220.8a100.2 100.2 0 0 1-200.4 0" fill="#338AF3"/><path d="m328.2 220.8-31.3 14.7 16.7 30.3-34-6.5-4.3 34.3-23.6-25.3-23.6 25.3-4.4-34.3-34 6.5 16.6-30.3-31.2-14.7 31.2-14.7-16.6-30.3 34 6.5L228 148l23.6 25.2 23.6-25.2 4.5 34.3 34-6.5-16.6 30.3 31.1 14.7z" fill="#FFDA44"/></g></svg>