<svg width="30" height="30" viewBox="0 0 30 30" fill="none" xmlns="http://www.w3.org/2000/svg">
<g clip-path="url(#clip0_919_348)">
<mask id="mask0_919_348" style="mask-type:alpha" maskUnits="userSpaceOnUse" x="0" y="0" width="30" height="30">
<path d="M15 30C23.2843 30 30 23.2843 30 15C30 6.71572 23.2843 0 15 0C6.71572 0 0 6.71572 0 15C0 23.2843 6.71572 30 15 30Z" fill="white"/>
</mask>
<g mask="url(#mask0_919_348)">
<path d="M0 0H30V30H0V0Z" fill="#338AF3"/>
<path d="M23.2266 15.709H6.26953C6.26953 16.8809 7.28906 17.8301 8.46094 17.8301H8.39062C8.39062 19.002 9.33984 19.9453 10.5117 19.9453C10.5117 21.1172 11.4551 22.0664 12.627 22.0664H16.8691C18.041 22.0664 18.9844 21.1172 18.9844 19.9453C20.1562 19.9453 21.1055 18.9961 21.1055 17.8301H21.0352C22.207 17.8301 23.2266 16.8809 23.2266 15.709Z" fill="#FFDA44"/>
<path d="M20.6191 12.9375C20.6191 14.4946 20.0006 15.9879 18.8995 17.089C17.7985 18.19 16.3052 18.8086 14.748 18.8086C13.1909 18.8086 11.6976 18.19 10.5966 17.089C9.49551 15.9879 8.87695 14.4946 8.87695 12.9375" fill="#338AF3"/>
<path d="M19.2305 12.9375L17.3965 13.7988L18.375 15.5742L16.3828 15.1934L16.1309 17.2031L14.748 15.7207L13.3652 17.2031L13.1074 15.1934L11.1152 15.5742L12.0879 13.7988L10.2598 12.9375L12.0879 12.0762L11.1152 10.3008L13.1074 10.6816L13.3594 8.67188L14.7422 10.1484L16.125 8.67188L16.3887 10.6816L18.3809 10.3008L17.4082 12.0762L19.2305 12.9375Z" fill="#FFDA44"/>
</g>
</g>
<defs>
<clipPath id="clip0_919_348">
<rect width="30" height="30" fill="white"/>
</clipPath>
</defs>
</svg>
