<svg width="30" height="30" viewBox="0 0 30 30" fill="none" xmlns="http://www.w3.org/2000/svg">
<g clip-path="url(#clip0_919_368)">
<mask id="mask0_919_368" style="mask-type:alpha" maskUnits="userSpaceOnUse" x="0" y="0" width="30" height="30">
<path d="M30 15C30 6.71572 23.2843 0 15 0C6.71572 0 0 6.71572 0 15C0 23.2843 6.71572 30 15 30C23.2843 30 30 23.2843 30 15Z" fill="white"/>
</mask>
<g mask="url(#mask0_919_368)">
<path d="M8.4399 30L7.03125 15.1289L8.4399 0H21.4316L23.7891 14.9355L21.4316 30H8.4399Z" fill="#FFDA44"/>
<path d="M0 30V0H8.49609V30H0Z" fill="#0052B4"/>
<path d="M21.5625 30V0H30V30H21.5625Z" fill="#D80027"/>
<path d="M20.209 11.8242H16.6289C16.6289 11.3922 16.4573 10.9778 16.1518 10.6723C15.8463 10.3669 15.432 10.1953 15 10.1953C14.568 10.1953 14.1537 10.3669 13.8482 10.6723C13.5427 10.9778 13.3711 11.3922 13.3711 11.8242H9.78516C9.79736 12.2553 9.97762 12.6645 10.2874 12.9645C10.5973 13.2644 11.0121 13.4314 11.4434 13.4296H11.3848C11.3848 13.641 11.4265 13.8502 11.5076 14.0454C11.5886 14.2405 11.7074 14.4178 11.8571 14.5669C12.0068 14.7161 12.1844 14.8343 12.3799 14.9146C12.5754 14.995 12.7848 15.0359 12.9961 15.0351C12.9961 15.8203 13.5586 16.4707 14.3027 16.6171L13.0371 19.4707C13.6606 19.7233 14.3272 19.8526 15 19.8515C15.6728 19.8526 16.3394 19.7233 16.9629 19.4707L15.6973 16.6054C16.0645 16.5358 16.3959 16.3404 16.6344 16.0526C16.8729 15.7649 17.0036 15.403 17.0039 15.0293C17.4297 15.0292 17.838 14.86 18.1391 14.559C18.4402 14.2579 18.6093 13.8496 18.6094 13.4238H18.5566C18.9879 13.4255 19.4027 13.2586 19.7126 12.9586C20.0224 12.6586 20.2026 12.2494 20.2148 11.8183L20.209 11.8242Z" fill="#FF9811"/>
<path d="M14.9941 14.0449L12.8789 15.0234V16.9805L15 18.2871L17.1211 16.9805V15.0234L14.9941 14.0449Z" fill="#0052B4"/>
<path d="M12.8789 13.0664H17.1152V15.0234H12.8789V13.0664Z" fill="#D80027"/>
</g>
</g>
<defs>
<clipPath id="clip0_919_368">
<rect width="30" height="30" fill="white"/>
</clipPath>
</defs>
</svg>
