<svg width="512" height="512" viewBox="0 0 512 512" fill="none" xmlns="http://www.w3.org/2000/svg"><mask id="a" style="mask-type:alpha" maskUnits="userSpaceOnUse" x="0" y="0" width="512" height="512" viewBox="0 0 512 512"><path d="M512 256C512 114.615 397.385 0 256 0S0 114.615 0 256s114.615 256 256 256 256-114.615 256-256z" fill="#fff"/></mask><g mask="url(#a)"><path d="M144.041 512 120 258.2 144.041 0h221.725L406 254.9 365.766 512H144.041z" fill="#FFDA44"/><path d="M0 512V0h145v512H0z" fill="#0052B4"/><path d="M368 512V0h144v512H368z" fill="#D80027"/><path d="M344.9 201.8h-61.1a27.804 27.804 0 0 0-8.142-19.658 27.804 27.804 0 0 0-39.316 0A27.804 27.804 0 0 0 228.2 201.8H167a28.198 28.198 0 0 0 28.3 27.4h-1a27.405 27.405 0 0 0 8.061 19.41 27.392 27.392 0 0 0 19.439 7.99c0 13.4 9.6 24.5 22.3 27l-21.6 48.7a88.809 88.809 0 0 0 33.5 6.5 88.809 88.809 0 0 0 33.5-6.5l-21.6-48.9a27.401 27.401 0 0 0 22.3-26.9 27.403 27.403 0 0 0 27.4-27.4h-.9a28.198 28.198 0 0 0 28.3-27.4l-.1.1z" fill="#FF9811"/><path d="m255.9 239.699-36.1 16.7v33.4l36.2 22.3 36.2-22.3v-33.4l-36.3-16.7z" fill="#0052B4"/><path d="M219.8 223h72.3v33.4h-72.3V223z" fill="#D80027"/></g></svg>