<svg width="30" height="30" viewBox="0 0 30 30" fill="none" xmlns="http://www.w3.org/2000/svg">
<g clip-path="url(#clip0_919_388)">
<mask id="mask0_919_388" style="mask-type:alpha" maskUnits="userSpaceOnUse" x="0" y="0" width="30" height="30">
<path d="M15 30C23.2843 30 30 23.2843 30 15C30 6.71572 23.2843 0 15 0C6.71572 0 0 6.71572 0 15C0 23.2843 6.71572 30 15 30Z" fill="white"/>
</mask>
<g mask="url(#mask0_919_388)">
<path d="M0 0H30V30H0V0Z" fill="#FFDA44"/>
<path d="M17.3145 30H26.0039L15 15L17.3145 30ZM12.6855 0H3.99609L15 15L12.6855 0ZM12.6973 30L15 15L3.99609 30H12.6973ZM0 12.6973L15 15L0 3.99609V12.6973ZM0 26.0098L15 15L0 17.3145V26.0098ZM30 4.00195L15 15L30 12.6855V4.00195ZM26.0039 0H17.3027L15 15L26.0039 0ZM30 26.0039V17.3027L15 15L30 26.0039Z" fill="#D80027"/>
<path d="M15 20.2148C17.8801 20.2148 20.2148 17.8801 20.2148 15C20.2148 12.1199 17.8801 9.78516 15 9.78516C12.1199 9.78516 9.78516 12.1199 9.78516 15C9.78516 17.8801 12.1199 20.2148 15 20.2148Z" fill="#D80027"/>
<path d="M14.9883 18.9023C17.15 18.9023 18.9023 17.15 18.9023 14.9883C18.9023 12.8266 17.15 11.0742 14.9883 11.0742C12.8266 11.0742 11.0742 12.8266 11.0742 14.9883C11.0742 17.15 12.8266 18.9023 14.9883 18.9023Z" fill="#FFDA44"/>
</g>
</g>
<defs>
<clipPath id="clip0_919_388">
<rect width="30" height="30" fill="white"/>
</clipPath>
</defs>
</svg>
