<svg width="512" height="512" viewBox="0 0 512 512" fill="none" xmlns="http://www.w3.org/2000/svg"><mask id="a" style="mask-type:alpha" maskUnits="userSpaceOnUse" x="0" y="0" width="512" height="512" viewBox="0 0 512 512"><path d="M256 512c141.385 0 256-114.615 256-256S397.385 0 256 0 0 114.615 0 256s114.615 256 256 256z" fill="#fff"/></mask><g mask="url(#a)"><path d="M0 0h512v512H0V0z" fill="#FFDA44"/><path d="M295.5 512h148.3L256 256l39.5 256zm-79-512H68.2L256 256 216.5 0zm.2 512L256 256 68.2 512h148.5zM0 216.7 256 256 0 68.2v148.5zm0 227.2L256 256 0 295.5v148.4zM512 68.3 256 256l256-39.5V68.3zM443.8 0H295.3L256 256 443.8 0zM512 443.8V295.3L256 256l256 187.8z" fill="#D80027"/><path d="M256 345c49.153 0 89-39.847 89-89s-39.847-89-89-89-89 39.847-89 89 39.847 89 89 89z" fill="#D80027"/><path d="M255.8 322.6c36.893 0 66.8-29.907 66.8-66.8S292.693 189 255.8 189 189 218.907 189 255.8s29.907 66.8 66.8 66.8z" fill="#FFDA44"/></g></svg>