<svg width="512" height="512" viewBox="0 0 512 512" fill="none" xmlns="http://www.w3.org/2000/svg">
<mask id="mask0_517_279" style="mask-type:alpha" maskUnits="userSpaceOnUse" x="0" y="0" width="512" height="512">
<path d="M256 512C397.385 512 512 397.385 512 256C512 114.615 397.385 0 256 0C114.615 0 0 114.615 0 256C0 397.385 114.615 512 256 512Z" fill="white"/>
</mask>
<g mask="url(#mask0_517_279)">
<path d="M0 0H512V512H0V0Z" fill="#FFDA44"/>
<path d="M295.5 512H443.8L256 256L295.5 512ZM216.5 0H68.2L256 256L216.5 0ZM216.7 512L256 256L68.2 512H216.7ZM0 216.7L256 256L0 68.2V216.7ZM0 443.9L256 256L0 295.5V443.9ZM512 68.3L256 256L512 216.5V68.3ZM443.8 0H295.3L256 256L443.8 0ZM512 443.8V295.3L256 256L512 443.8Z" fill="#D80027"/>
<path d="M256 345C305.153 345 345 305.153 345 256C345 206.847 305.153 167 256 167C206.847 167 167 206.847 167 256C167 305.153 206.847 345 256 345Z" fill="#D80027"/>
<path d="M255.8 322.6C292.693 322.6 322.6 292.693 322.6 255.8C322.6 218.907 292.693 189 255.8 189C218.907 189 189 218.907 189 255.8C189 292.693 218.907 322.6 255.8 322.6Z" fill="#FFDA44"/>
</g>
</svg>
