<svg width="30" height="30" viewBox="0 0 30 30" fill="none" xmlns="http://www.w3.org/2000/svg">
<g clip-path="url(#clip0_919_405)">
<mask id="mask0_919_405" style="mask-type:luminance" maskUnits="userSpaceOnUse" x="0" y="0" width="30" height="30">
<path d="M15 30C23.2843 30 30 23.2843 30 15C30 6.71573 23.2843 0 15 0C6.71573 0 0 6.71573 0 15C0 23.2843 6.71573 30 15 30Z" fill="white"/>
</mask>
<g mask="url(#mask0_919_405)">
<path d="M0 0H5.87109L9.74414 3.13477L13.6934 0H30V11.0918L27.3223 15.0586L30 18.9141V30H13.6934L9.70898 27.0293L5.87109 30H0V18.9141L3.01172 14.9004L0 11.0918V0Z" fill="#D80027"/>
<path d="M5.87109 0V11.0918H0V13.0488L1.44141 14.9824L0 16.9629V18.9199H5.87109V30H7.82813L9.62109 28.459L11.7363 30H13.6934V18.9141H30V16.957L28.5586 14.9824L30 13.0488V11.0918H13.6934V0H11.7363L9.75586 1.48242L7.82813 0H5.87109Z" fill="#EEEEEE"/>
<path d="M7.82813 0V13.0488H0V16.957H7.82813V30H11.7363V16.957H30V13.0488H11.7363V0H7.82813Z" fill="#0052B4"/>
</g>
</g>
<defs>
<clipPath id="clip0_919_405">
<rect width="30" height="30" fill="white"/>
</clipPath>
</defs>
</svg>
