<svg width="30" height="30" viewBox="0 0 30 30" fill="none" xmlns="http://www.w3.org/2000/svg">
<g clip-path="url(#clip0_919_454)">
<mask id="mask0_919_454" style="mask-type:alpha" maskUnits="userSpaceOnUse" x="0" y="0" width="30" height="30">
<path d="M15 30C23.2843 30 30 23.2843 30 15C30 6.71572 23.2843 0 15 0C6.71572 0 0 6.71572 0 15C0 23.2843 6.71572 30 15 30Z" fill="white"/>
</mask>
<g mask="url(#mask0_919_454)">
<path d="M0 9.78516L14.8711 8.6543L30 9.78516V20.2148L15.0645 22.1074L0 20.2148V9.78516Z" fill="#0052B4"/>
<path d="M0 0H30V9.78516H0V0Z" fill="#D80027"/>
<path d="M0 20.2148H30V30H0V20.2148Z" fill="#EEEEEE"/>
<path d="M3.86719 8.58398V16.0664C3.86719 20.3203 9.42773 21.6328 9.42773 21.6328C9.42773 21.6328 14.9883 20.3203 14.9883 16.0664V8.58398H3.86719Z" fill="#D80027"/>
<path d="M6.16406 9.89063H12.6914V7.27734L11.3848 7.93359L9.42773 5.97656L7.4707 7.93359L6.16406 7.27734V9.89063ZM13.6816 17.1094L9.44531 12.8672L5.20312 17.1094L6.5918 18.4922L9.44531 15.6387L12.2988 18.4922L13.6816 17.1094Z" fill="#FFDA44"/>
<path d="M13.6816 13.1484H11.707C11.822 12.9509 11.8826 12.7265 11.8828 12.498C11.8833 12.2799 11.8292 12.0653 11.7254 11.8735C11.6217 11.6817 11.4716 11.519 11.2889 11.4C11.1062 11.2811 10.8966 11.2098 10.6792 11.1926C10.4619 11.1753 10.2437 11.2128 10.0445 11.3015C9.77784 11.4202 9.55865 11.6249 9.42188 11.8827C9.28361 11.6279 9.06452 11.4263 8.7991 11.3097C8.53368 11.193 8.23701 11.168 7.95579 11.2385C7.67458 11.3089 7.42478 11.4709 7.24573 11.6989C7.06669 11.927 6.96856 12.2081 6.9668 12.498C6.96697 12.7265 7.02762 12.9509 7.14258 13.1484H5.20312C5.21379 13.4986 5.36047 13.831 5.61206 14.0749C5.86365 14.3188 6.20035 14.4552 6.55078 14.455H6.50977C6.50977 15.1757 7.0957 15.7558 7.81641 15.7558C7.81641 16.4003 8.27344 16.9277 8.87695 17.039L7.85156 19.3593C8.35773 19.5649 8.89898 19.6704 9.44531 19.6698C9.99165 19.6704 10.5329 19.5649 11.0391 19.3593L10.0137 17.039C10.6172 16.9218 11.0742 16.3944 11.0742 15.7558C11.7949 15.7558 12.3809 15.1698 12.3809 14.455H12.334C12.6844 14.4552 13.0211 14.3188 13.2727 14.0749C13.5243 13.831 13.671 13.4986 13.6816 13.1484Z" fill="#EEEEEE"/>
</g>
</g>
<defs>
<clipPath id="clip0_919_454">
<rect width="30" height="30" fill="white"/>
</clipPath>
</defs>
</svg>
