<svg width="512" height="512" viewBox="0 0 512 512" fill="none" xmlns="http://www.w3.org/2000/svg"><mask id="a" style="mask-type:alpha" maskUnits="userSpaceOnUse" x="0" y="0" width="512" height="512" viewBox="0 0 512 512"><path d="M256 512c141.385 0 256-114.615 256-256S397.385 0 256 0 0 114.615 0 256s114.615 256 256 256z" fill="#fff"/></mask><g mask="url(#a)"><path d="m0 167 253.8-19.3L512 167v178l-254.9 32.3L0 345V167z" fill="#0052B4"/><path d="M0 0h512v167H0V0z" fill="#D80027"/><path d="M0 345h512v167H0V345z" fill="#EEE"/><path d="M66 146.5v127.7c0 72.6 94.9 95 94.9 95s94.9-22.4 94.9-95V146.5H66z" fill="#D80027"/><path d="M105.2 168.8h111.4v-44.6l-22.3 11.2-33.4-33.4-33.4 33.4-22.3-11.2v44.6zM233.5 292l-72.3-72.4L88.8 292l23.7 23.6 48.7-48.7 48.7 48.7 23.6-23.6z" fill="#FFDA44"/><path d="M233.5 224.399h-33.7a22.096 22.096 0 0 0 3-11.1 22.302 22.302 0 0 0-31.374-20.42 22.295 22.295 0 0 0-10.626 9.92 22.3 22.3 0 0 0-41.9 10.5c.003 3.9 1.038 7.73 3 11.1H88.8a23 23 0 0 0 23 22.3h-.7c0 12.3 10 22.2 22.3 22.2 0 11 7.8 20 18.1 21.9l-17.5 39.6a72.093 72.093 0 0 0 27.2 5.3 72.093 72.093 0 0 0 27.2-5.3l-17.5-39.6c10.3-2 18.1-11 18.1-21.9 12.3 0 22.3-10 22.3-22.2h-.8a23 23 0 0 0 23-22.3z" fill="#EEE"/></g></svg>