<svg width="30" height="30" viewBox="0 0 30 30" fill="none" xmlns="http://www.w3.org/2000/svg">
<g clip-path="url(#clip0_919_488)">
<mask id="mask0_919_488" style="mask-type:luminance" maskUnits="userSpaceOnUse" x="0" y="0" width="30" height="30">
<path d="M15 30C23.2843 30 30 23.2843 30 15C30 6.71573 23.2843 0 15 0C6.71573 0 0 6.71573 0 15C0 23.2843 6.71573 30 15 30Z" fill="white"/>
</mask>
<g mask="url(#mask0_919_488)">
<path d="M0 0H7.82813L9.89648 0.978516L11.7363 0H30V13.043L28.6758 14.9004L30 16.957V30H11.7363L9.86133 28.8398L7.82813 30H0V16.957L1.29492 15.0059L0 13.043V0Z" fill="#0052B4"/>
<path d="M7.82813 0V13.043H0V16.957H7.82813V30H11.7363V16.957H30V13.043H11.7363V0H7.82813Z" fill="#FFDA44"/>
</g>
</g>
<defs>
<clipPath id="clip0_919_488">
<rect width="30" height="30" fill="white"/>
</clipPath>
</defs>
</svg>
