<svg width="512" height="512" viewBox="0 0 512 512" fill="none" xmlns="http://www.w3.org/2000/svg"><mask id="a" style="mask-type:alpha" maskUnits="userSpaceOnUse" x="0" y="0" width="512" height="512" viewBox="0 0 512 512"><path d="M256 512c141.385 0 256-114.615 256-256S397.385 0 256 0 0 114.615 0 256s114.615 256 256 256z" fill="#fff"/></mask><g mask="url(#a)"><path d="M0 0h512v512H0V0z" fill="#D80027"/><path d="m245 209 21 29 34-11.1-21 29 21 28.9-34-11.1-21 29v-35.9l-34-11.1 34-11V209z" fill="#EEE"/><path d="M189.807 328.35a72.313 72.313 0 0 1-31.684-7.41 72.312 72.312 0 0 1-38.884-50.087 72.311 72.311 0 0 1 15.549-61.473 72.306 72.306 0 0 1 89.419-17.03 88.996 88.996 0 0 0-96.737-18.379 89.003 89.003 0 0 0-39.612 131.262 89.003 89.003 0 0 0 90.754 38.203 88.996 88.996 0 0 0 45.595-23.786 72.007 72.007 0 0 1-34.4 8.7z" fill="#EEE"/></g></svg>