<svg width="30" height="30" viewBox="0 0 30 30" fill="none" xmlns="http://www.w3.org/2000/svg">
<g clip-path="url(#clip0_919_503)">
<mask id="mask0_919_503" style="mask-type:alpha" maskUnits="userSpaceOnUse" x="0" y="0" width="30" height="30">
<path d="M15 30C23.2843 30 30 23.2843 30 15C30 6.71572 23.2843 0 15 0C6.71572 0 0 6.71572 0 15C0 23.2843 6.71572 30 15 30Z" fill="white"/>
</mask>
<g mask="url(#mask0_919_503)">
<path d="M0 0H30V30H0V0Z" fill="#D80027"/>
<path d="M14.3555 12.2461L15.5859 13.9453L17.5781 13.2949L16.3477 14.9941L17.5781 16.6875L15.5859 16.0371L14.3555 17.7363V15.6328L12.3633 14.9824L14.3555 14.3379V12.2461Z" fill="#EEEEEE"/>
<path d="M11.1215 19.2393C10.4778 19.2375 9.84285 19.089 9.26505 18.8051C8.68728 18.5212 8.18181 18.1093 7.78703 17.6008C7.39225 17.0923 7.11854 16.5005 6.98669 15.8704C6.85492 15.2402 6.86849 14.5883 7.02636 13.9642C7.18422 13.3401 7.48223 12.7601 7.89776 12.2684C8.52453 11.5269 9.38697 11.0232 10.3407 10.8416C11.2945 10.6599 12.2817 10.8114 13.1372 11.2706C12.4032 10.5532 11.4739 10.0684 10.4656 9.8768C9.45728 9.68524 8.41489 9.79547 7.46897 10.1937C6.76179 10.4914 6.12903 10.9415 5.6158 11.5119C5.10257 12.0823 4.72153 12.7589 4.49985 13.4934C4.27818 14.228 4.22132 15.0025 4.33335 15.7615C4.44538 16.5206 4.72353 17.2456 5.14796 17.8848C5.71571 18.7398 6.5231 19.4082 7.46901 19.8064C8.41493 20.2046 9.4573 20.3148 10.4656 20.1233C11.4738 19.9317 12.4032 19.4469 13.1372 18.7296C12.5183 19.065 11.8254 19.2402 11.1215 19.2393Z" fill="#EEEEEE"/>
</g>
</g>
<defs>
<clipPath id="clip0_919_503">
<rect width="30" height="30" fill="white"/>
</clipPath>
</defs>
</svg>
