<svg width="30" height="30" viewBox="0 0 30 30" fill="none" xmlns="http://www.w3.org/2000/svg">
<g clip-path="url(#clip0_919_534)">
<mask id="mask0_919_534" style="mask-type:luminance" maskUnits="userSpaceOnUse" x="0" y="0" width="30" height="30">
<path d="M15 30C23.2843 30 30 23.2843 30 15C30 6.71573 23.2843 0 15 0C6.71573 0 0 6.71573 0 15C0 23.2843 6.71573 30 15 30Z" fill="white"/>
</mask>
<g mask="url(#mask0_919_534)">
<path d="M0 15L15 0H30V3.26367L28.7871 5.28516L30 7.17188V11.0859L28.7578 13.002L30 15V18.9141L28.5938 20.7715L30 22.8281V26.7363L14.8184 28.3945L0 26.7363V22.8281L1.58789 20.877L0 18.9141V15Z" fill="#EEEEEE"/>
<path d="M15 15H30V11.0859H13.8809L15 15ZM13.8809 7.17187H30V3.26367H13.8809V7.17187ZM30 30V26.7363H0V30H30ZM0 22.8281H30V18.9141H0V22.8281Z" fill="#D80027"/>
<path d="M0 0H15V15H0V0Z" fill="#0052B4"/>
<path d="M0.878906 0.849609L0.404297 2.34375H-1.17188L0.0996094 3.26953L-0.386719 4.76367L0.878906 3.83789L2.14453 4.76367L1.66406 3.27539L2.94141 2.34375H1.37109L0.878906 0.849609ZM6.25781 0.849609L5.77148 2.34375H4.20117L5.47266 3.26953L4.98633 4.76367L6.25781 3.83789L7.5293 4.76367L7.04297 3.27539L8.32031 2.34375H6.75L6.25781 0.849609ZM11.6426 0.849609L11.1562 2.34961H9.58594L10.8574 3.27539L10.3711 4.76953L11.6426 3.84375L12.9082 4.76367L12.4277 3.28125L13.6992 2.34375H12.1289L11.6426 0.849609ZM0.878906 5.22656L0.392578 6.7207H-1.17188L0.0996094 7.64648L-0.386719 9.14062L0.878906 8.20312L2.14453 9.12305L1.66406 7.64062L2.93555 6.70313H1.37109L0.878906 5.22656ZM6.25781 5.22656L5.77148 6.7207H4.20703L5.47852 7.64648L4.99219 9.14062L6.26367 8.21484L7.5293 9.13477L7.04883 7.65234L8.32031 6.71484H6.75L6.25781 5.22656ZM11.6367 5.22656L11.1504 6.7207H9.58008L10.8516 7.64648L10.3652 9.14062L11.6367 8.21484L12.9023 9.13477L12.4219 7.65234L13.6934 6.71484H12.1289L11.6367 5.22656ZM0.878906 9.58594L0.392578 11.0801H-1.17188L0.09375 12.0117L-0.392578 13.5059L0.878906 12.5742L2.15039 13.5L1.66406 12.0117L2.93555 11.0801H1.36523L0.878906 9.58594ZM6.25781 9.58594L5.77148 11.0801H4.20117L5.47266 12.0117L4.98633 13.5059L6.25781 12.5801L7.5293 13.5059L7.04297 12.0176L8.31445 11.0859H6.74414L6.25781 9.58594ZM11.6367 9.58594L11.1504 11.0801H9.58008L10.8516 12.0059L10.3652 13.5L11.6367 12.5742L12.9082 13.5L12.4219 12.0117L13.6934 11.0801H12.1289L11.6367 9.58594Z" fill="#EEEEEE"/>
</g>
</g>
<defs>
<clipPath id="clip0_919_534">
<rect width="30" height="30" fill="white"/>
</clipPath>
</defs>
</svg>
