<svg width="513" height="512" viewBox="0 0 513 512" fill="none" xmlns="http://www.w3.org/2000/svg">
<rect width="512" height="512" rx="256" fill="#008D96"/>
<path d="M264.5 511L129 376L193.5 364L83 253L193.5 177.5L352.5 142L377.5 132L444.5 199L511.5 266L510.461 276.496C504.644 335.241 479.919 390.511 440 434C396.431 477.891 338.648 504.821 277.017 509.957L264.5 511Z" fill="#595959" fill-opacity="0.5"/>
<path d="M264.147 511.354C264.251 511.458 264.395 511.51 264.542 511.498L277.059 510.455C338.808 505.309 396.702 478.328 440.355 434.352C440.359 434.348 440.364 434.343 440.368 434.338C480.36 390.77 505.131 335.398 510.958 276.545L511.998 266.049C512.012 265.9 511.959 265.752 511.854 265.646L444.854 198.646L377.854 131.646C377.712 131.505 377.5 131.461 377.314 131.536L352.352 141.521L193.391 177.012C193.329 177.026 193.27 177.051 193.218 177.087L82.7179 252.587C82.5952 252.671 82.5162 252.805 82.5022 252.953C82.4882 253.101 82.5408 253.247 82.6456 253.353L192.478 363.682L128.909 375.508C128.726 375.542 128.577 375.675 128.522 375.852C128.467 376.03 128.515 376.223 128.647 376.354L264.147 511.354Z" stroke="#595959" stroke-opacity="0.5" stroke-linejoin="round"/>
<path d="M106.989 344.5C106.812 344.504 106.651 344.601 106.564 344.755C106.478 344.909 106.479 345.097 106.567 345.25C125.556 378.136 154.867 403.837 189.955 418.369C225.042 432.901 263.945 435.45 300.629 425.622C337.313 415.794 369.729 394.137 392.849 364.011C415.968 333.885 428.5 296.973 428.5 259C428.5 258.845 428.429 258.699 428.306 258.605L376.699 218.605C376.519 218.465 376.267 218.465 376.087 218.605L324.48 258.605C324.358 258.699 324.286 258.845 324.286 259C324.286 274.035 319.324 288.65 310.17 300.578C301.016 312.507 288.181 321.081 273.656 324.973C259.132 328.864 243.728 327.855 229.836 322.101C215.943 316.347 204.338 306.171 196.819 293.15C196.731 292.997 196.568 292.902 196.392 292.9C196.215 292.898 196.051 292.989 195.959 293.14L165.532 343.169L106.989 344.5Z" fill="#FF8F8F" stroke="#FF8F8F" stroke-linejoin="round"/>
<path d="M404.011 167.5C404.188 167.496 404.349 167.399 404.436 167.245C404.522 167.091 404.521 166.903 404.433 166.75C385.444 133.864 356.133 108.163 321.045 93.6309C285.958 79.0992 247.055 76.5497 210.371 86.3778C173.687 96.206 141.271 117.863 118.151 147.989C95.0316 178.115 82.5 215.027 82.5 253C82.5 253.155 82.5715 253.301 82.6937 253.395L134.301 293.395C134.481 293.535 134.733 293.535 134.913 293.395L186.52 253.395C186.643 253.301 186.714 253.155 186.714 253C186.714 237.965 191.676 223.35 200.83 211.422C209.984 199.493 222.819 190.919 237.344 187.027C251.868 183.136 267.272 184.145 281.164 189.899C295.057 195.653 306.662 205.829 314.181 218.85C314.269 219.003 314.432 219.098 314.608 219.1C314.785 219.102 314.949 219.011 315.041 218.86L345.469 168.831L404.011 167.5Z" fill="#C750FF" stroke="#C750FF" stroke-linecap="round" stroke-linejoin="round"/>
</svg>
